<svg xmlns="http://www.w3.org/2000/svg" xmlns:xlink="http://www.w3.org/1999/xlink" contentStyleType="text/css" data-diagram-type="DESCRIPTION" height="3032px" preserveAspectRatio="none" style="width:438px;height:3032px;background:#FFFFFF;" version="1.1" viewBox="0 0 438 3032" width="438px" zoomAndPan="magnify"><defs/><g><!--cluster Gesti?n de Usuarios--><g class="cluster" data-entity="Gestión de Usuarios" data-source-line="8" data-uid="ent0007" id="cluster_Gestión de Usuarios"><path d="M175.19,1164 L334.6197,1164 A3.75,3.75 0 0 1 337.1197,1166.5 L344.1197,1186.2969 L405.45,1186.2969 A2.5,2.5 0 0 1 407.95,1188.7969 L407.95,1597.5 A2.5,2.5 0 0 1 405.45,1600 L175.19,1600 A2.5,2.5 0 0 1 172.69,1597.5 L172.69,1166.5 A2.5,2.5 0 0 1 175.19,1164" fill="none" style="stroke:#000000;stroke-width:1.5;"/><line style="stroke:#000000;stroke-width:1.5;" x1="172.69" x2="344.1197" y1="1186.2969" y2="1186.2969"/><text fill="#000000" font-family="sans-serif" font-size="14" font-weight="bold" lengthAdjust="spacing" textLength="158.4297" x="176.69" y="1178.9951">Gestión de Usuarios</text></g><!--cluster Cat?logo y Contenido--><g class="cluster" data-entity="Catálogo y Contenido" data-source-line="17" data-uid="ent0020" id="cluster_Catálogo y Contenido"><path d="M181.96,1878 L352.2041,1878 A3.75,3.75 0 0 1 354.7041,1880.5 L361.7041,1900.2969 L398.68,1900.2969 A2.5,2.5 0 0 1 401.18,1902.7969 L401.18,2395.5 A2.5,2.5 0 0 1 398.68,2398 L181.96,2398 A2.5,2.5 0 0 1 179.46,2395.5 L179.46,1880.5 A2.5,2.5 0 0 1 181.96,1878" fill="none" style="stroke:#000000;stroke-width:1.5;"/><line style="stroke:#000000;stroke-width:1.5;" x1="179.46" x2="361.7041" y1="1900.2969" y2="1900.2969"/><text fill="#000000" font-family="sans-serif" font-size="14" font-weight="bold" lengthAdjust="spacing" textLength="169.2441" x="183.46" y="1892.9951">Catálogo y Contenido</text></g><!--cluster Pr?stamos y Disponibilidad--><g class="cluster" data-entity="Préstamos y Disponibilidad" data-source-line="30" data-uid="ent0038" id="cluster_Préstamos y Disponibilidad"><path d="M151.58,663 L368.1923,663 A3.75,3.75 0 0 1 370.6923,665.5 L377.6923,685.2969 L429.06,685.2969 A2.5,2.5 0 0 1 431.56,687.7969 L431.56,1137.5 A2.5,2.5 0 0 1 429.06,1140 L151.58,1140 A2.5,2.5 0 0 1 149.08,1137.5 L149.08,665.5 A2.5,2.5 0 0 1 151.58,663" fill="none" style="stroke:#000000;stroke-width:1.5;"/><line style="stroke:#000000;stroke-width:1.5;" x1="149.08" x2="377.6923" y1="685.2969" y2="685.2969"/><text fill="#000000" font-family="sans-serif" font-size="14" font-weight="bold" lengthAdjust="spacing" textLength="215.6123" x="153.08" y="677.9951">Préstamos y Disponibilidad</text></g><!--cluster Interacci?n y Experiencia--><g class="cluster" data-entity="Interacción y Experiencia" data-source-line="39" data-uid="ent0051" id="cluster_Interacción y Experiencia"><path d="M165.86,6 L366.2506,6 A3.75,3.75 0 0 1 368.7506,8.5 L375.7506,28.2969 L414.78,28.2969 A2.5,2.5 0 0 1 417.28,30.7969 L417.28,636.5 A2.5,2.5 0 0 1 414.78,639 L165.86,639 A2.5,2.5 0 0 1 163.36,636.5 L163.36,8.5 A2.5,2.5 0 0 1 165.86,6" fill="none" style="stroke:#000000;stroke-width:1.5;"/><line style="stroke:#000000;stroke-width:1.5;" x1="163.36" x2="375.7506" y1="28.2969" y2="28.2969"/><text fill="#000000" font-family="sans-serif" font-size="14" font-weight="bold" lengthAdjust="spacing" textLength="199.3906" x="167.36" y="20.9951">Interacción y Experiencia</text></g><!--cluster Comunidad y Eventos--><g class="cluster" data-entity="Comunidad y Eventos" data-source-line="50" data-uid="ent0068" id="cluster_Comunidad y Eventos"><path d="M174.66,2422 L346.0321,2422 A3.75,3.75 0 0 1 348.5321,2424.5 L355.5321,2444.2969 L405.98,2444.2969 A2.5,2.5 0 0 1 408.48,2446.7969 L408.48,3022.5 A2.5,2.5 0 0 1 405.98,3025 L174.66,3025 A2.5,2.5 0 0 1 172.16,3022.5 L172.16,2424.5 A2.5,2.5 0 0 1 174.66,2422" fill="none" style="stroke:#000000;stroke-width:1.5;"/><line style="stroke:#000000;stroke-width:1.5;" x1="172.16" x2="355.5321" y1="2444.2969" y2="2444.2969"/><text fill="#000000" font-family="sans-serif" font-size="14" font-weight="bold" lengthAdjust="spacing" textLength="170.3721" x="176.16" y="2436.9951">Comunidad y Eventos</text></g><!--cluster Gesti?n y Auditor?a--><g class="cluster" data-entity="Gestión y Auditoría" data-source-line="63" data-uid="ent0087" id="cluster_Gestión y Auditoría"><path d="M195.99,1624 L349.3425,1624 A3.75,3.75 0 0 1 351.8425,1626.5 L358.8425,1646.2969 L384.65,1646.2969 A2.5,2.5 0 0 1 387.15,1648.7969 L387.15,1851.5 A2.5,2.5 0 0 1 384.65,1854 L195.99,1854 A2.5,2.5 0 0 1 193.49,1851.5 L193.49,1626.5 A2.5,2.5 0 0 1 195.99,1624" fill="none" style="stroke:#000000;stroke-width:1.5;"/><line style="stroke:#000000;stroke-width:1.5;" x1="193.49" x2="358.8425" y1="1646.2969" y2="1646.2969"/><text fill="#000000" font-family="sans-serif" font-size="14" font-weight="bold" lengthAdjust="spacing" textLength="152.3525" x="197.49" y="1638.9951">Gestión y Auditoría</text></g><!--entity Registrar usuario--><g class="entity" data-entity="Registrar usuario" data-source-line="9" data-uid="ent0008" id="entity_Registrar usuario"><ellipse cx="290.3177" cy="1216.9975" fill="#F1F1F1" rx="75.6377" ry="17.5275" style="stroke:#181818;stroke-width:0.5;"/><text fill="#000000" font-family="sans-serif" font-size="14" lengthAdjust="spacing" textLength="120.2715" x="230.1819" y="1221.646">Registrar usuario</text></g><!--entity Iniciar sesi?n--><g class="entity" data-entity="Iniciar sesión" data-source-line="10" data-uid="ent0010" id="entity_Iniciar sesión"><ellipse cx="290.3211" cy="1353.0042" fill="#F1F1F1" rx="64.3711" ry="15.2742" style="stroke:#181818;stroke-width:0.5;"/><text fill="#000000" font-family="sans-serif" font-size="14" lengthAdjust="spacing" textLength="91.793" x="244.4246" y="1357.6527">Iniciar sesión</text></g><!--entity Actualizar perfil--><g class="entity" data-entity="Actualizar perfil" data-source-line="11" data-uid="ent0012" id="entity_Actualizar perfil"><ellipse cx="290.3238" cy="1285.9968" fill="#F1F1F1" rx="71.4838" ry="16.6968" style="stroke:#181818;stroke-width:0.5;"/><text fill="#000000" font-family="sans-serif" font-size="14" lengthAdjust="spacing" textLength="110.0928" x="235.2774" y="1290.6452">Actualizar perfil</text></g><!--entity Asignar rol--><g class="entity" data-entity="Asignar rol" data-source-line="12" data-uid="ent0014" id="entity_Asignar rol"><ellipse cx="290.3183" cy="1418.0036" fill="#F1F1F1" rx="56.3983" ry="14.5236" style="stroke:#181818;stroke-width:0.5;"/><text fill="#000000" font-family="sans-serif" font-size="14" lengthAdjust="spacing" textLength="75.5166" x="252.56" y="1422.6521">Asignar rol</text></g><!--entity Activar/desactivar cuenta--><g class="entity" data-entity="Activar/desactivar cuenta" data-source-line="13" data-uid="ent0016" id="entity_Activar/desactivar cuenta"><ellipse cx="290.316" cy="1489.9952" fill="#F1F1F1" rx="101.626" ry="22.7252" style="stroke:#181818;stroke-width:0.5;"/><text fill="#000000" font-family="sans-serif" font-size="14" lengthAdjust="spacing" textLength="179.6348" x="200.4986" y="1494.6436">Activar/desactivar cuenta</text></g><!--entity Ver perfil de autor--><g class="entity" data-entity="Ver perfil de autor" data-source-line="14" data-uid="ent0018" id="entity_Ver perfil de autor"><ellipse cx="290.3177" cy="1565.9955" fill="#F1F1F1" rx="78.8777" ry="18.1755" style="stroke:#181818;stroke-width:0.5;"/><text fill="#000000" font-family="sans-serif" font-size="14" lengthAdjust="spacing" textLength="128.0234" x="226.306" y="1570.644">Ver perfil de autor</text></g><!--entity Buscar libros--><g class="entity" data-entity="Buscar libros" data-source-line="18" data-uid="ent0021" id="entity_Buscar libros"><ellipse cx="290.3222" cy="2001.0004" fill="#F1F1F1" rx="63.9022" ry="15.1804" style="stroke:#181818;stroke-width:0.5;"/><text fill="#000000" font-family="sans-serif" font-size="14" lengthAdjust="spacing" textLength="90.5352" x="245.0546" y="2005.6489">Buscar libros</text></g><!--entity Ver detalles de libro--><g class="entity" data-entity="Ver detalles de libro" data-source-line="19" data-uid="ent0023" id="entity_Ver detalles de libro"><ellipse cx="290.3228" cy="1931.9986" fill="#F1F1F1" rx="84.4428" ry="19.2886" style="stroke:#181818;stroke-width:0.5;"/><text fill="#000000" font-family="sans-serif" font-size="14" lengthAdjust="spacing" textLength="141.0391" x="219.8033" y="1936.647">Ver detalles de libro</text></g><!--entity Gestionar libros--><g class="entity" data-entity="Gestionar libros" data-source-line="22" data-uid="ent0027" id="entity_Gestionar libros"><ellipse cx="290.3238" cy="2365.0008" fill="#F1F1F1" rx="71.7038" ry="16.7408" style="stroke:#181818;stroke-width:0.5;"/><text fill="#000000" font-family="sans-serif" font-size="14" lengthAdjust="spacing" textLength="110.6396" x="235.004" y="2369.6492">Gestionar libros</text></g><!--entity Aprobar/rechazar libros--><g class="entity" data-entity="Aprobar/rechazar libros" data-source-line="24" data-uid="ent0030" id="entity_Aprobar/rechazar libros"><ellipse cx="290.3182" cy="2144.0016" fill="#F1F1F1" rx="94.8582" ry="21.3716" style="stroke:#181818;stroke-width:0.5;"/><text fill="#000000" font-family="sans-serif" font-size="14" lengthAdjust="spacing" textLength="164.6572" x="207.9896" y="2148.6501">Aprobar/rechazar libros</text></g><!--entity Gestionar g?neros--><g class="entity" data-entity="Gestionar géneros" data-source-line="25" data-uid="ent0032" id="entity_Gestionar géneros"><ellipse cx="290.3232" cy="2069.0046" fill="#F1F1F1" rx="79.2732" ry="18.2546" style="stroke:#181818;stroke-width:0.5;"/><text fill="#000000" font-family="sans-serif" font-size="14" lengthAdjust="spacing" textLength="128.96" x="225.8432" y="2073.6531">Gestionar géneros</text></g><!--entity Gestionar etiquetas--><g class="entity" data-entity="Gestionar etiquetas" data-source-line="26" data-uid="ent0034" id="entity_Gestionar etiquetas"><ellipse cx="290.3177" cy="2294.0035" fill="#F1F1F1" rx="83.1677" ry="19.0335" style="stroke:#181818;stroke-width:0.5;"/><text fill="#000000" font-family="sans-serif" font-size="14" lengthAdjust="spacing" textLength="138.0859" x="221.2747" y="2298.652">Gestionar etiquetas</text></g><!--entity Gestionar ejemplares--><g class="entity" data-entity="Gestionar ejemplares" data-source-line="27" data-uid="ent0036" id="entity_Gestionar ejemplares"><ellipse cx="290.3193" cy="2220.0019" fill="#F1F1F1" rx="88.4093" ry="20.0819" style="stroke:#181818;stroke-width:0.5;"/><text fill="#000000" font-family="sans-serif" font-size="14" lengthAdjust="spacing" textLength="150.1309" x="215.2538" y="2224.6503">Gestionar ejemplares</text></g><!--entity Solicitar pr?stamo--><g class="entity" data-entity="Solicitar préstamo" data-source-line="31" data-uid="ent0039" id="entity_Solicitar préstamo"><ellipse cx="290.3216" cy="786.9963" fill="#F1F1F1" rx="78.8316" ry="18.1663" style="stroke:#181818;stroke-width:0.5;"/><text fill="#000000" font-family="sans-serif" font-size="14" lengthAdjust="spacing" textLength="127.9141" x="226.3645" y="791.6448">Solicitar préstamo</text></g><!--entity Devolver ejemplar--><g class="entity" data-entity="Devolver ejemplar" data-source-line="32" data-uid="ent0041" id="entity_Devolver ejemplar"><ellipse cx="290.3238" cy="715.9968" fill="#F1F1F1" rx="79.3338" ry="18.2668" style="stroke:#181818;stroke-width:0.5;"/><text fill="#000000" font-family="sans-serif" font-size="14" lengthAdjust="spacing" textLength="129.1035" x="225.7721" y="720.6452">Devolver ejemplar</text></g><!--entity Ver pr?stamos activos e historial--><g class="entity" data-entity="Ver préstamos activos e historial" data-source-line="33" data-uid="ent0043" id="entity_Ver préstamos activos e historial"><ellipse cx="290.3199" cy="938.998" fill="#F1F1F1" rx="125.2399" ry="27.448" style="stroke:#181818;stroke-width:0.5;"/><text fill="#000000" font-family="sans-serif" font-size="14" lengthAdjust="spacing" textLength="230.501" x="175.0694" y="943.6464">Ver préstamos activos e historial</text></g><!--entity Registrar/devolver pr?stamos--><g class="entity" data-entity="Registrar/devolver préstamos" data-source-line="34" data-uid="ent0045" id="entity_Registrar/devolver préstamos"><ellipse cx="290.3239" cy="1099.0048" fill="#F1F1F1" rx="114.7739" ry="25.3548" style="stroke:#181818;stroke-width:0.5;"/><text fill="#000000" font-family="sans-serif" font-size="14" lengthAdjust="spacing" textLength="208.168" x="186.2399" y="1103.6532">Registrar/devolver préstamos</text></g><!--entity Reservar ejemplar--><g class="entity" data-entity="Reservar ejemplar" data-source-line="35" data-uid="ent0047" id="entity_Reservar ejemplar"><ellipse cx="290.3245" cy="858.0029" fill="#F1F1F1" rx="79.2645" ry="18.2529" style="stroke:#181818;stroke-width:0.5;"/><text fill="#000000" font-family="sans-serif" font-size="14" lengthAdjust="spacing" textLength="128.9395" x="225.8548" y="862.6513">Reservar ejemplar</text></g><!--entity Gestionar reservas--><g class="entity" data-entity="Gestionar reservas" data-source-line="36" data-uid="ent0049" id="entity_Gestionar reservas"><ellipse cx="290.316" cy="1019.9992" fill="#F1F1F1" rx="80.796" ry="18.5592" style="stroke:#181818;stroke-width:0.5;"/><text fill="#000000" font-family="sans-serif" font-size="14" lengthAdjust="spacing" textLength="132.5488" x="224.0416" y="1024.6476">Gestionar reservas</text></g><!--entity Registrar historial de lectura--><g class="entity" data-entity="Registrar historial de lectura" data-source-line="40" data-uid="ent0052" id="entity_Registrar historial de lectura"><ellipse cx="290.3249" cy="143.003" fill="#F1F1F1" rx="110.9649" ry="24.593" style="stroke:#181818;stroke-width:0.5;"/><text fill="#000000" font-family="sans-serif" font-size="14" lengthAdjust="spacing" textLength="199.9648" x="190.3424" y="147.6514">Registrar historial de lectura</text></g><!--entity Comentar/calificar libro--><g class="entity" data-entity="Comentar/calificar libro" data-source-line="41" data-uid="ent0054" id="entity_Comentar/calificar libro"><ellipse cx="290.3204" cy="62.0041" fill="#F1F1F1" rx="94.7204" ry="21.3441" style="stroke:#181818;stroke-width:0.5;"/><text fill="#000000" font-family="sans-serif" font-size="14" lengthAdjust="spacing" textLength="164.3496" x="208.1456" y="66.6525">Comentar/calificar libro</text></g><!--entity Moderaci?n de comentarios--><g class="entity" data-entity="Moderación de comentarios" data-source-line="42" data-uid="ent0056" id="entity_Moderación de comentarios"><ellipse cx="290.318" cy="599.0016" fill="#F1F1F1" rx="108.608" ry="24.1216" style="stroke:#181818;stroke-width:0.5;"/><text fill="#000000" font-family="sans-serif" font-size="14" lengthAdjust="spacing" textLength="194.8652" x="192.8853" y="603.65">Moderación de comentarios</text></g><!--entity Recomendar libro--><g class="entity" data-entity="Recomendar libro" data-source-line="43" data-uid="ent0058" id="entity_Recomendar libro"><ellipse cx="290.3201" cy="522" fill="#F1F1F1" rx="77.3501" ry="17.87" style="stroke:#181818;stroke-width:0.5;"/><text fill="#000000" font-family="sans-serif" font-size="14" lengthAdjust="spacing" textLength="124.3867" x="228.1268" y="526.6485">Recomendar libro</text></g><!--entity Crear lista de lectura--><g class="entity" data-entity="Crear lista de lectura" data-source-line="44" data-uid="ent0060" id="entity_Crear lista de lectura"><ellipse cx="290.3182" cy="448.9996" fill="#F1F1F1" rx="87.1982" ry="19.8396" style="stroke:#181818;stroke-width:0.5;"/><text fill="#000000" font-family="sans-serif" font-size="14" lengthAdjust="spacing" textLength="147.3691" x="216.6337" y="453.6481">Crear lista de lectura</text></g><!--entity A?adir/quitar libro de lista--><g class="entity" data-entity="Añadir/quitar libro de lista" data-source-line="45" data-uid="ent0062" id="entity_Añadir/quitar libro de lista"><ellipse cx="290.3181" cy="370.9976" fill="#F1F1F1" rx="103.0381" ry="23.0076" style="stroke:#181818;stroke-width:0.5;"/><text fill="#000000" font-family="sans-serif" font-size="14" lengthAdjust="spacing" textLength="182.7314" x="198.9524" y="375.6461">Añadir/quitar libro de lista</text></g><!--entity Compartir lista--><g class="entity" data-entity="Compartir lista" data-source-line="46" data-uid="ent0064" id="entity_Compartir lista"><ellipse cx="290.3212" cy="296.9962" fill="#F1F1F1" rx="69.0312" ry="16.2062" style="stroke:#181818;stroke-width:0.5;"/><text fill="#000000" font-family="sans-serif" font-size="14" lengthAdjust="spacing" textLength="103.9268" x="238.3578" y="301.6447">Compartir lista</text></g><!--entity Configurar preferencias--><g class="entity" data-entity="Configurar preferencias" data-source-line="47" data-uid="ent0066" id="entity_Configurar preferencias"><ellipse cx="290.3155" cy="223.9971" fill="#F1F1F1" rx="95.3855" ry="21.4771" style="stroke:#181818;stroke-width:0.5;"/><text fill="#000000" font-family="sans-serif" font-size="14" lengthAdjust="spacing" textLength="165.833" x="207.399" y="228.6455">Configurar preferencias</text></g><!--entity Ver novedades--><g class="entity" data-entity="Ver novedades" data-source-line="51" data-uid="ent0069" id="entity_Ver novedades"><ellipse cx="290.3216" cy="2626.0003" fill="#F1F1F1" rx="69.4516" ry="16.2903" style="stroke:#181818;stroke-width:0.5;"/><text fill="#000000" font-family="sans-serif" font-size="14" lengthAdjust="spacing" textLength="104.9932" x="237.825" y="2630.6488">Ver novedades</text></g><!--entity Gestionar novedades--><g class="entity" data-entity="Gestionar novedades" data-source-line="53" data-uid="ent0072" id="entity_Gestionar novedades"><ellipse cx="290.323" cy="2832.9986" fill="#F1F1F1" rx="87.893" ry="19.9786" style="stroke:#181818;stroke-width:0.5;"/><text fill="#000000" font-family="sans-serif" font-size="14" lengthAdjust="spacing" textLength="148.9551" x="215.8455" y="2837.647">Gestionar novedades</text></g><!--entity Ver eventos--><g class="entity" data-entity="Ver eventos" data-source-line="54" data-uid="ent0074" id="entity_Ver eventos"><ellipse cx="290.321" cy="2692.0022" fill="#F1F1F1" rx="61.561" ry="14.7122" style="stroke:#181818;stroke-width:0.5;"/><text fill="#000000" font-family="sans-serif" font-size="14" lengthAdjust="spacing" textLength="84.1299" x="248.256" y="2696.6506">Ver eventos</text></g><!--entity Gestionar eventos--><g class="entity" data-entity="Gestionar eventos" data-source-line="56" data-uid="ent0077" id="entity_Gestionar eventos"><ellipse cx="290.3165" cy="2760.0013" fill="#F1F1F1" rx="78.9065" ry="18.1813" style="stroke:#181818;stroke-width:0.5;"/><text fill="#000000" font-family="sans-serif" font-size="14" lengthAdjust="spacing" textLength="128.0918" x="226.2706" y="2764.6497">Gestionar eventos</text></g><!--entity Crear club de lectura--><g class="entity" data-entity="Crear club de lectura" data-source-line="57" data-uid="ent0079" id="entity_Crear club de lectura"><ellipse cx="290.318" cy="2554.9976" fill="#F1F1F1" rx="87.288" ry="19.8576" style="stroke:#181818;stroke-width:0.5;"/><text fill="#000000" font-family="sans-serif" font-size="14" lengthAdjust="spacing" textLength="147.5742" x="216.5309" y="2559.646">Crear club de lectura</text></g><!--entity Unirse a club de lectura--><g class="entity" data-entity="Unirse a club de lectura" data-source-line="58" data-uid="ent0081" id="entity_Unirse a club de lectura"><ellipse cx="290.3182" cy="2479.0036" fill="#F1F1F1" rx="95.8182" ry="21.5636" style="stroke:#181818;stroke-width:0.5;"/><text fill="#000000" font-family="sans-serif" font-size="14" lengthAdjust="spacing" textLength="166.7969" x="206.9198" y="2483.6521">Unirse a club de lectura</text></g><!--entity Participar en foro del club--><g class="entity" data-entity="Participar en foro del club" data-source-line="59" data-uid="ent0083" id="entity_Participar en foro del club"><ellipse cx="290.3186" cy="2986.0017" fill="#F1F1F1" rx="102.1586" ry="22.8317" style="stroke:#181818;stroke-width:0.5;"/><text fill="#000000" font-family="sans-serif" font-size="14" lengthAdjust="spacing" textLength="180.8037" x="199.9167" y="2990.6502">Participar en foro del club</text></g><!--entity Ver sesiones del club--><g class="entity" data-entity="Ver sesiones del club" data-source-line="60" data-uid="ent0085" id="entity_Ver sesiones del club"><ellipse cx="290.3202" cy="2907.996" fill="#F1F1F1" rx="87.6802" ry="19.936" style="stroke:#181818;stroke-width:0.5;"/><text fill="#000000" font-family="sans-serif" font-size="14" lengthAdjust="spacing" textLength="148.4697" x="216.0854" y="2912.6445">Ver sesiones del club</text></g><!--entity Reportar problema--><g class="entity" data-entity="Reportar problema" data-source-line="64" data-uid="ent0088" id="entity_Reportar problema"><ellipse cx="290.3239" cy="1677.9968" fill="#F1F1F1" rx="80.8339" ry="18.5668" style="stroke:#181818;stroke-width:0.5;"/><text fill="#000000" font-family="sans-serif" font-size="14" lengthAdjust="spacing" textLength="132.6377" x="224.005" y="1682.6452">Reportar problema</text></g><!--entity Gestionar reportes--><g class="entity" data-entity="Gestionar reportes" data-source-line="65" data-uid="ent0090" id="entity_Gestionar reportes"><ellipse cx="290.3184" cy="1819.9957" fill="#F1F1F1" rx="80.2784" ry="18.4557" style="stroke:#181818;stroke-width:0.5;"/><text fill="#000000" font-family="sans-serif" font-size="14" lengthAdjust="spacing" textLength="131.332" x="224.6524" y="1824.6441">Gestionar reportes</text></g><!--entity Monitorear logros--><g class="entity" data-entity="Monitorear logros" data-source-line="66" data-uid="ent0092" id="entity_Monitorear logros"><ellipse cx="290.3202" cy="1749.002" fill="#F1F1F1" rx="77.0102" ry="17.802" style="stroke:#181818;stroke-width:0.5;"/><text fill="#000000" font-family="sans-serif" font-size="14" lengthAdjust="spacing" textLength="123.5732" x="228.5336" y="1753.6505">Monitorear logros</text></g><!--entity Usuario--><g class="entity" data-entity="Usuario" data-source-line="2" data-uid="ent0002" id="entity_Usuario"><ellipse cx="55.5421" cy="909.35" fill="#F1F1F1" rx="8" ry="8" style="stroke:#181818;stroke-width:0.5;"/><path d="M55.5421,917.35 L55.5421,944.35 M42.5421,925.35 L68.5421,925.35 M55.5421,944.35 L42.5421,959.35 M55.5421,944.35 L68.5421,959.35" fill="none" style="stroke:#181818;stroke-width:0.5;"/><text fill="#000000" font-family="sans-serif" font-size="14" lengthAdjust="spacing" textLength="53.2041" x="28.94" y="973.8451">Usuario</text></g><!--entity Autor--><g class="entity" data-entity="Autor" data-source-line="3" data-uid="ent0003" id="entity_Autor"><ellipse cx="55.5404" cy="2335.35" fill="#F1F1F1" rx="8" ry="8" style="stroke:#181818;stroke-width:0.5;"/><path d="M55.5404,2343.35 L55.5404,2370.35 M42.5404,2351.35 L68.5404,2351.35 M55.5404,2370.35 L42.5404,2385.35 M55.5404,2370.35 L68.5404,2385.35" fill="none" style="stroke:#181818;stroke-width:0.5;"/><text fill="#000000" font-family="sans-serif" font-size="14" lengthAdjust="spacing" textLength="38.2607" x="36.41" y="2399.8451">Autor</text></g><!--entity Administrador--><g class="entity" data-entity="Administrador" data-source-line="4" data-uid="ent0004" id="entity_Administrador"><ellipse cx="55.54" cy="1825.35" fill="#F1F1F1" rx="8" ry="8" style="stroke:#181818;stroke-width:0.5;"/><path d="M55.54,1833.35 L55.54,1860.35 M42.54,1841.35 L68.54,1841.35 M55.54,1860.35 L42.54,1875.35 M55.54,1860.35 L68.54,1875.35" fill="none" style="stroke:#181818;stroke-width:0.5;"/><text fill="#000000" font-family="sans-serif" font-size="14" lengthAdjust="spacing" textLength="99.0801" x="6" y="1889.8451">Administrador</text></g><!--entity MiembroClub--><g class="entity" data-entity="MiembroClub" data-source-line="5" data-uid="ent0005" id="entity_MiembroClub"><ellipse cx="55.5414" cy="2917.35" fill="#F1F1F1" rx="8" ry="8" style="stroke:#181818;stroke-width:0.5;"/><path d="M55.5414,2925.35 L55.5414,2952.35 M42.5414,2933.35 L68.5414,2933.35 M55.5414,2952.35 L42.5414,2967.35 M55.5414,2952.35 L68.5414,2967.35" fill="none" style="stroke:#181818;stroke-width:0.5;"/><text fill="#000000" font-family="sans-serif" font-size="14" lengthAdjust="spacing" textLength="97.3027" x="6.89" y="2981.8451">Miembro Club</text></g><!--entity Visitante--><g class="entity" data-entity="Visitante" data-source-line="6" data-uid="ent0006" id="entity_Visitante"><ellipse cx="55.5372" cy="1971.35" fill="#F1F1F1" rx="8" ry="8" style="stroke:#181818;stroke-width:0.5;"/><path d="M55.5372,1979.35 L55.5372,2006.35 M42.5372,1987.35 L68.5372,1987.35 M55.5372,2006.35 L42.5372,2021.35 M55.5372,2006.35 L68.5372,2021.35" fill="none" style="stroke:#181818;stroke-width:0.5;"/><text fill="#000000" font-family="sans-serif" font-size="14" lengthAdjust="spacing" textLength="61.6943" x="24.69" y="2035.8451">Visitante</text></g><!--link Usuario to Registrar usuario--><g class="link" data-entity-1="Usuario" data-entity-2="Registrar usuario" data-source-line="9" data-uid="lnk9" id="link_Usuario_Registrar usuario"><path d="M64.36,977.35 C75.03,1021.29 97.96,1093.25 141.08,1140 C169,1170.27 211.55,1190.65 243.92,1202.8" fill="none" id="Usuario-Registrar usuario" style="stroke:#181818;stroke-width:1;"/></g><!--link Usuario to Iniciar sesi?n--><g class="link" data-entity-1="Usuario" data-entity-2="Iniciar sesión" data-source-line="10" data-uid="lnk11" id="link_Usuario_Iniciar sesión"><path d="M59.9,977.53 C68.28,1064.43 92.95,1271.83 141.08,1320 C163.07,1342.01 196.29,1350.74 225.7,1353.76" fill="none" id="Usuario-Iniciar sesión" style="stroke:#181818;stroke-width:1;"/></g><!--link Usuario to Actualizar perfil--><g class="link" data-entity-1="Usuario" data-entity-2="Actualizar perfil" data-source-line="11" data-uid="lnk13" id="link_Usuario_Actualizar perfil"><path d="M61.92,977.36 C73.18,1052.26 101.54,1213.94 141.08,1252 C161.63,1271.77 191.22,1280.92 218.57,1284.88" fill="none" id="Usuario-Actualizar perfil" style="stroke:#181818;stroke-width:1;"/></g><!--link Administrador to Asignar rol--><g class="link" data-entity-1="Administrador" data-entity-2="Asignar rol" data-source-line="12" data-uid="lnk15" id="link_Administrador_Asignar rol"><path d="M59.33,1816.43 C66.71,1725.53 89.77,1501.66 141.08,1450 C165.11,1425.81 202.76,1417.9 234.1,1416" fill="none" id="Administrador-Asignar rol" style="stroke:#181818;stroke-width:1;"/></g><!--link Administrador to Activar/desactivar cuenta--><g class="link" data-entity-1="Administrador" data-entity-2="Activar/desactivar cuenta" data-source-line="13" data-uid="lnk17" id="link_Administrador_Activar/desactivar cuenta"><path d="M61.67,1816.5 C72.67,1739.53 100.86,1570.58 141.08,1530 C156.09,1514.85 176.2,1505.27 196.75,1499.24" fill="none" id="Administrador-Activar/desactivar cuenta" style="stroke:#181818;stroke-width:1;"/></g><!--link Visitante to Ver perfil de autor--><g class="link" data-entity-1="Visitante" data-entity-2="Ver perfil de autor" data-source-line="14" data-uid="lnk19" id="link_Visitante_Ver perfil de autor"><path d="M81.27,1962.51 C90.12,1947.05 99.32,1928.73 105.08,1911 C142.21,1796.7 71.97,1741.32 141.08,1643 C163.68,1610.85 203.88,1591.16 236.73,1579.75" fill="none" id="Visitante-Ver perfil de autor" style="stroke:#181818;stroke-width:1;"/></g><!--link Usuario to Buscar libros--><g class="link" data-entity-1="Usuario" data-entity-2="Buscar libros" data-source-line="18" data-uid="lnk22" id="link_Usuario_Buscar libros"><path d="M58.42,977.45 C67.49,1159.9 107.71,1930.96 141.08,1969 C162.17,1993.05 196.64,2001.48 227.03,2003.7" fill="none" id="Usuario-Buscar libros" style="stroke:#181818;stroke-width:1;"/></g><!--link Usuario to Ver detalles de libro--><g class="link" data-entity-1="Usuario" data-entity-2="Ver detalles de libro" data-source-line="19" data-uid="lnk24" id="link_Usuario_Ver detalles de libro"><path d="M57.95,977.56 C64.25,1142.06 91.71,1780.14 141.08,1854 C162.41,1885.91 201.16,1905.65 233.69,1917.29" fill="none" id="Usuario-Ver detalles de libro" style="stroke:#181818;stroke-width:1;"/></g><!--link Visitante to Buscar libros--><g class="link" data-entity-1="Visitante" data-entity-2="Buscar libros" data-source-line="20" data-uid="lnk25" id="link_Visitante_Buscar libros"><path d="M86.5,2001 C121.61,2001 180.79,2001 226.18,2001" fill="none" id="Visitante-Buscar libros" style="stroke:#181818;stroke-width:1;"/></g><!--link Visitante to Ver detalles de libro--><g class="link" data-entity-1="Visitante" data-entity-2="Ver detalles de libro" data-source-line="21" data-uid="lnk26" id="link_Visitante_Ver detalles de libro"><path d="M86.71,1988.09 C102.69,1981.54 122.75,1973.78 141.08,1968 C168.99,1959.21 200.43,1951.3 227.14,1945.15" fill="none" id="Visitante-Ver detalles de libro" style="stroke:#181818;stroke-width:1;"/></g><!--link Autor to Gestionar libros--><g class="link" data-entity-1="Autor" data-entity-2="Gestionar libros" data-source-line="22" data-uid="lnk28" id="link_Autor_Gestionar libros"><path d="M74.81,2365 C105.35,2365 168.36,2365 218.22,2365" fill="none" id="Autor-Gestionar libros" style="stroke:#181818;stroke-width:1;"/></g><!--link Administrador to Gestionar libros--><g class="link" data-entity-1="Administrador" data-entity-2="Gestionar libros" data-source-line="23" data-uid="lnk29" id="link_Administrador_Gestionar libros"><path d="M81.65,1893.38 C90.55,1908.81 99.68,1927.16 105.08,1945 C130.03,2027.46 84.33,2266.18 141.08,2331 C160.21,2352.85 190.27,2362.2 218.34,2365.76" fill="none" id="Administrador-Gestionar libros" style="stroke:#181818;stroke-width:1;"/></g><!--link Administrador to Aprobar/rechazar libros--><g class="link" data-entity-1="Administrador" data-entity-2="Aprobar/rechazar libros" data-source-line="24" data-uid="lnk31" id="link_Administrador_Aprobar/rechazar libros"><path d="M80.21,1893.33 C89.03,1908.92 98.49,1927.38 105.08,1945 C130.62,2013.27 90.47,2052.54 141.08,2105 C156.78,2121.28 178.4,2131.05 200.28,2136.83" fill="none" id="Administrador-Aprobar/rechazar libros" style="stroke:#181818;stroke-width:1;"/></g><!--link Administrador to Gestionar g?neros--><g class="link" data-entity-1="Administrador" data-entity-2="Gestionar géneros" data-source-line="25" data-uid="lnk33" id="link_Administrador_Gestionar géneros"><path d="M78.52,1893.5 C87.19,1909.27 97,1927.81 105.08,1945 C123.24,1983.61 108.7,2006.21 141.08,2034 C160.95,2051.05 187.62,2060.14 212.86,2064.89" fill="none" id="Administrador-Gestionar géneros" style="stroke:#181818;stroke-width:1;"/></g><!--link Administrador to Gestionar etiquetas--><g class="link" data-entity-1="Administrador" data-entity-2="Gestionar etiquetas" data-source-line="26" data-uid="lnk35" id="link_Administrador_Gestionar etiquetas"><path d="M81.45,1893.44 C90.32,1908.88 99.49,1927.22 105.08,1945 C126.08,2011.79 94.73,2205.53 141.08,2258 C157.82,2276.96 182.71,2286.78 207.32,2291.64" fill="none" id="Administrador-Gestionar etiquetas" style="stroke:#181818;stroke-width:1;"/></g><!--link Administrador to Gestionar ejemplares--><g class="link" data-entity-1="Administrador" data-entity-2="Gestionar ejemplares" data-source-line="27" data-uid="lnk37" id="link_Administrador_Gestionar ejemplares"><path d="M81.12,1893.54 C89.95,1909 99.17,1927.32 105.08,1945 C138.97,2046.47 69.09,2103.87 141.08,2183 C157.14,2200.66 180.24,2210.47 203.43,2215.78" fill="none" id="Administrador-Gestionar ejemplares" style="stroke:#181818;stroke-width:1;"/></g><!--link Usuario to Solicitar pr?stamo--><g class="link" data-entity-1="Usuario" data-entity-2="Solicitar préstamo" data-source-line="31" data-uid="lnk40" id="link_Usuario_Solicitar préstamo"><path d="M75.06,900.42 C89.51,874.4 112,841.41 141.08,822 C163.3,807.17 191.06,798.6 216.53,793.65" fill="none" id="Usuario-Solicitar préstamo" style="stroke:#181818;stroke-width:1;"/></g><!--link Usuario to Devolver ejemplar--><g class="link" data-entity-1="Usuario" data-entity-2="Devolver ejemplar" data-source-line="32" data-uid="lnk42" id="link_Usuario_Devolver ejemplar"><path d="M63.38,900.43 C73.06,857.46 94.99,789.04 141.08,751 C161.27,734.34 188.01,725.33 213.22,720.54" fill="none" id="Usuario-Devolver ejemplar" style="stroke:#181818;stroke-width:1;"/></g><!--link Usuario to Ver pr?stamos activos e historial--><g class="link" data-entity-1="Usuario" data-entity-2="Ver préstamos activos e historial" data-source-line="33" data-uid="lnk44" id="link_Usuario_Ver préstamos activos e historial"><path d="M82.34,939 C102.94,939 133.44,939 164.74,939" fill="none" id="Usuario-Ver préstamos activos e historial" style="stroke:#181818;stroke-width:1;"/></g><!--link Administrador to Registrar/devolver pr?stamos--><g class="link" data-entity-1="Administrador" data-entity-2="Registrar/devolver préstamos" data-source-line="34" data-uid="lnk46" id="link_Administrador_Registrar/devolver préstamos"><path d="M56.94,1816.45 C58.94,1689.69 70.81,1287.9 141.08,1183 C160.75,1153.63 194.36,1133.38 224.61,1120.13" fill="none" id="Administrador-Registrar/devolver préstamos" style="stroke:#181818;stroke-width:1;"/></g><!--link Usuario to Reservar ejemplar--><g class="link" data-entity-1="Usuario" data-entity-2="Reservar ejemplar" data-source-line="35" data-uid="lnk48" id="link_Usuario_Reservar ejemplar"><path d="M82.39,923.05 C98.73,913.53 120.57,901.81 141.08,894 C168.68,883.5 200.36,875.31 227.33,869.42" fill="none" id="Usuario-Reservar ejemplar" style="stroke:#181818;stroke-width:1;"/></g><!--link Administrador to Gestionar reservas--><g class="link" data-entity-1="Administrador" data-entity-2="Gestionar reservas" data-source-line="36" data-uid="lnk50" id="link_Administrador_Gestionar reservas"><path d="M58.04,1816.51 C64.32,1664.81 90.44,1113.86 141.08,1056 C158.26,1036.37 184.17,1026.52 209.54,1021.82" fill="none" id="Administrador-Gestionar reservas" style="stroke:#181818;stroke-width:1;"/></g><!--link Usuario to Registrar historial de lectura--><g class="link" data-entity-1="Usuario" data-entity-2="Registrar historial de lectura" data-source-line="40" data-uid="lnk53" id="link_Usuario_Registrar historial de lectura"><path d="M58.36,900.75 C65.6,755.04 94.34,240.14 141.08,185 C153.79,170 171.43,160.16 190.11,153.74" fill="none" id="Usuario-Registrar historial de lectura" style="stroke:#181818;stroke-width:1;"/></g><!--link Usuario to Comentar/calificar libro--><g class="link" data-entity-1="Usuario" data-entity-2="Comentar/calificar libro" data-source-line="41" data-uid="lnk55" id="link_Usuario_Comentar/calificar libro"><path d="M57.88,900.53 C63.64,744.29 88.51,162.53 141.08,101 C155.77,83.8 177.05,73.73 198.92,67.94" fill="none" id="Usuario-Comentar/calificar libro" style="stroke:#181818;stroke-width:1;"/></g><!--link Administrador to Moderaci?n de comentarios--><g class="link" data-entity-1="Administrador" data-entity-2="Moderación de comentarios" data-source-line="42" data-uid="lnk57" id="link_Administrador_Moderación de comentarios"><path d="M58.81,1816.53 C70.67,1616.81 125.48,706.54 141.08,682 C160.3,651.75 194.67,631.52 225.48,618.61" fill="none" id="Administrador-Moderación de comentarios" style="stroke:#181818;stroke-width:1;"/></g><!--link Usuario to Recomendar libro--><g class="link" data-entity-1="Usuario" data-entity-2="Recomendar libro" data-source-line="43" data-uid="lnk59" id="link_Usuario_Recomendar libro"><path d="M59.93,900.41 C68.37,813.38 93.15,605.61 141.08,557 C159.93,537.89 187.13,528.43 213.1,523.97" fill="none" id="Usuario-Recomendar libro" style="stroke:#181818;stroke-width:1;"/></g><!--link Usuario to Crear lista de lectura--><g class="link" data-entity-1="Usuario" data-entity-2="Crear lista de lectura" data-source-line="44" data-uid="lnk61" id="link_Usuario_Crear lista de lectura"><path d="M58.55,900.52 C64.44,802.51 84.96,546.96 141.08,487 C157.78,469.16 181.63,459.23 205.32,453.83" fill="none" id="Usuario-Crear lista de lectura" style="stroke:#181818;stroke-width:1;"/></g><!--link Usuario to A?adir/quitar libro de lista--><g class="link" data-entity-1="Usuario" data-entity-2="Añadir/quitar libro de lista" data-source-line="45" data-uid="lnk63" id="link_Usuario_Añadir/quitar libro de lista"><path d="M57.48,900.7 C60.91,791.95 76.27,484.42 141.08,412 C155.24,396.18 174.9,386.23 195.28,380.04" fill="none" id="Usuario-Añadir/quitar libro de lista" style="stroke:#181818;stroke-width:1;"/></g><!--link Usuario to Compartir lista--><g class="link" data-entity-1="Usuario" data-entity-2="Compartir lista" data-source-line="46" data-uid="lnk65" id="link_Usuario_Compartir lista"><path d="M56.37,900.72 C56.65,780.53 63.93,413.68 141.08,330 C161.28,308.1 192.53,299.1 221.14,295.88" fill="none" id="Usuario-Compartir lista" style="stroke:#181818;stroke-width:1;"/></g><!--link Usuario to Configurar preferencias--><g class="link" data-entity-1="Usuario" data-entity-2="Configurar preferencias" data-source-line="47" data-uid="lnk67" id="link_Usuario_Configurar preferencias"><path d="M55.92,900.8 C54.62,772.37 57.15,358.9 141.08,263 C155.89,246.08 177.07,236.08 198.81,230.28" fill="none" id="Usuario-Configurar preferencias" style="stroke:#181818;stroke-width:1;"/></g><!--link Usuario to Ver novedades--><g class="link" data-entity-1="Usuario" data-entity-2="Ver novedades" data-source-line="51" data-uid="lnk70" id="link_Usuario_Ver novedades"><path d="M58.87,977.56 C66.14,1098.58 88.92,1481.63 105.08,1799 C107.32,1843.04 112.83,2558.14 141.08,2592 C160.36,2615.11 191.87,2624.38 220.89,2627.56" fill="none" id="Usuario-Ver novedades" style="stroke:#181818;stroke-width:1;"/></g><!--link Visitante to Ver novedades--><g class="link" data-entity-1="Visitante" data-entity-2="Ver novedades" data-source-line="52" data-uid="lnk71" id="link_Visitante_Ver novedades"><path d="M62.96,2039.36 C72.62,2097.57 91.23,2211.73 105.08,2309 C114.02,2371.76 98.52,2545.01 141.08,2592 C161.02,2614.02 192.06,2623.25 220.6,2626.68" fill="none" id="Visitante-Ver novedades" style="stroke:#181818;stroke-width:1;"/></g><!--link Administrador to Gestionar novedades--><g class="link" data-entity-1="Administrador" data-entity-2="Gestionar novedades" data-source-line="53" data-uid="lnk73" id="link_Administrador_Gestionar novedades"><path d="M82.12,1893.24 C91.08,1908.66 100.14,1927.03 105.08,1945 C130.18,2036.25 81.26,2722.66 141.08,2796 C156.34,2814.7 179.48,2824.79 202.97,2830.01" fill="none" id="Administrador-Gestionar novedades" style="stroke:#181818;stroke-width:1;"/></g><!--link Usuario to Ver eventos--><g class="link" data-entity-1="Usuario" data-entity-2="Ver eventos" data-source-line="54" data-uid="lnk75" id="link_Usuario_Ver eventos"><path d="M58.92,977.56 C66.34,1098.57 89.49,1481.6 105.08,1799 C107.43,1846.82 110.24,2623.38 141.08,2660 C162.45,2685.37 198.7,2693.52 230,2695.25" fill="none" id="Usuario-Ver eventos" style="stroke:#181818;stroke-width:1;"/></g><!--link Visitante to Ver eventos--><g class="link" data-entity-1="Visitante" data-entity-2="Ver eventos" data-source-line="55" data-uid="lnk76" id="link_Visitante_Ver eventos"><path d="M63.26,2039.32 C73.31,2097.47 92.42,2211.57 105.08,2309 C115.19,2386.76 88.78,2601.58 141.08,2660 C162.94,2684.42 198.6,2692.66 229.47,2694.68" fill="none" id="Visitante-Ver eventos" style="stroke:#181818;stroke-width:1;"/></g><!--link Administrador to Gestionar eventos--><g class="link" data-entity-1="Administrador" data-entity-2="Gestionar eventos" data-source-line="56" data-uid="lnk78" id="link_Administrador_Gestionar eventos"><path d="M82.08,1893.25 C91.04,1908.67 100.1,1927.04 105.08,1945 C128.23,2028.5 85.97,2657.14 141.08,2724 C158.18,2744.74 185.02,2754.7 211.19,2759.16" fill="none" id="Administrador-Gestionar eventos" style="stroke:#181818;stroke-width:1;"/></g><!--link Usuario to Crear club de lectura--><g class="link" data-entity-1="Usuario" data-entity-2="Crear club de lectura" data-source-line="57" data-uid="lnk80" id="link_Usuario_Crear club de lectura"><path d="M58.8,977.57 C65.89,1098.59 88.18,1481.67 105.08,1799 C107.21,1838.94 115.68,2487.11 141.08,2518 C156.58,2536.85 180.08,2546.93 203.84,2552.11" fill="none" id="Usuario-Crear club de lectura" style="stroke:#181818;stroke-width:1;"/></g><!--link Usuario to Unirse a club de lectura--><g class="link" data-entity-1="Usuario" data-entity-2="Unirse a club de lectura" data-source-line="58" data-uid="lnk82" id="link_Usuario_Unirse a club de lectura"><path d="M58.71,977.54 C71.69,1208.01 138.63,2394.13 141.08,2398 C161,2429.47 197.64,2449.65 229.51,2462" fill="none" id="Usuario-Unirse a club de lectura" style="stroke:#181818;stroke-width:1;"/></g><!--link MiembroClub to Participar en foro del club--><g class="link" data-entity-1="MiembroClub" data-entity-2="Participar en foro del club" data-source-line="59" data-uid="lnk84" id="link_MiembroClub_Participar en foro del club"><path d="M104.49,2955.03 C134.17,2960.01 173.06,2966.52 207.5,2972.29" fill="none" id="MiembroClub-Participar en foro del club" style="stroke:#181818;stroke-width:1;"/></g><!--link MiembroClub to Ver sesiones del club--><g class="link" data-entity-1="MiembroClub" data-entity-2="Ver sesiones del club" data-source-line="60" data-uid="lnk86" id="link_MiembroClub_Ver sesiones del club"><path d="M104.49,2938.97 C137.5,2933.44 181.89,2926 218.9,2919.8" fill="none" id="MiembroClub-Ver sesiones del club" style="stroke:#181818;stroke-width:1;"/></g><!--link Usuario to Reportar problema--><g class="link" data-entity-1="Usuario" data-entity-2="Reportar problema" data-source-line="64" data-uid="lnk89" id="link_Usuario_Reportar problema"><path d="M56.91,977.44 C58.79,1102.89 70.32,1498.07 141.08,1600 C163.47,1632.25 203.47,1652.18 236.28,1663.81" fill="none" id="Usuario-Reportar problema" style="stroke:#181818;stroke-width:1;"/></g><!--link Administrador to Gestionar reportes--><g class="link" data-entity-1="Administrador" data-entity-2="Gestionar reportes" data-source-line="65" data-uid="lnk91" id="link_Administrador_Gestionar reportes"><path d="M105.34,1847.66 C139.2,1842.57 184.75,1835.72 222.05,1830.12" fill="none" id="Administrador-Gestionar reportes" style="stroke:#181818;stroke-width:1;"/></g><!--link Administrador to Monitorear logros--><g class="link" data-entity-1="Administrador" data-entity-2="Monitorear logros" data-source-line="66" data-uid="lnk93" id="link_Administrador_Monitorear logros"><path d="M94.64,1816.51 C108.3,1804.55 124.46,1792.34 141.08,1784 C166.37,1771.31 196.41,1763.11 222.82,1757.87" fill="none" id="Administrador-Monitorear logros" style="stroke:#181818;stroke-width:1;"/></g><!--SRC=[bLLBRXf14DrpYXQhiB0u0y5Hv8KbAv6zBtgAePAcQrpTWu8Z3fEb5rb4EG8NItKFO3CVH5WCytbLhpwlgXqkeubiXCfLD0K9saZiHs0ZYtaCDGZnuMbMw_LuNwp9KuW2nUdT-9vmlH0sSrSlnWQ2ERn8pmVC4mMAu2EEHXNOxr2Y6N_646d_rvi2ZunXR7wEZFuEp-RcndpuWcLc55CtRoSTo9qdIme869B7Bc1cOmsENXHJeIp9DP2pT1fWeD8hIdWOegNQW4mB3D3S6bkZZz0Od5BDu2SyCgOq8PLoCjgzgy8SulwNuvBDrinPpJmLt5U6ZtMmIkL8Ankw6IQY0YCuXo5HPLnVH3r-kY4FUCfIoA3SFFOjHzrYNOkRLS8BBQeASGKl_-6stBzwl0g9aPvhpUiQw3TSLmu4mtcp7cJ_6YAiEMYtRYbKx6b1ZWee-bhsbPtgCYRH7GsxZRl53RiDlf7szxPweywgqtyqAusVXM1GgwVPKRKUQDuSJNf6BQ1ie1tBfL99Oz8gr9sAIS3QFDzRy-c7pW2Xro6zFE6dXBBmT2dL0jqmvxnEyoPJgpEzf9ESXwAzvo95Srmszc1E_IN8dujpdsViWlcZ5l5YbBFz7z3DEdskimIojsQUGknFgWA99CC0lwIobYmdNABaUhOAhrvgd_IOghxHDFjtQbAKvmqg40UNG0jmIGKjQ9iAcqY6YCu-NvpBzy1kJwmUE1TRykX9WgxXVkIxOokZ7r8xB5M9s9ibv_QvRDjla799Hn3xl3cFq5tVeRVLPLgGYdt_Us0cAfPcTV32uHgk6SLaCjokUzrMIfZLosNUcRj_]--></g></svg>