<svg xmlns="http://www.w3.org/2000/svg" xmlns:xlink="http://www.w3.org/1999/xlink" contentStyleType="text/css" data-diagram-type="DESCRIPTION" height="589px" preserveAspectRatio="none" style="width:366px;height:589px;background:#FFFFFF;" version="1.1" viewBox="0 0 366 589" width="366px" zoomAndPan="magnify"><defs/><g><!--entity Usuario--><g class="entity" data-entity="Usuario" data-source-line="3" data-uid="ent0002" id="entity_Usuario"><ellipse cx="55.5421" cy="458" fill="#F1F1F1" rx="8" ry="8" style="stroke:#181818;stroke-width:0.5;"/><path d="M55.5421,466 L55.5421,493 M42.5421,474 L68.5421,474 M55.5421,493 L42.5421,508 M55.5421,493 L68.5421,508" fill="none" style="stroke:#181818;stroke-width:0.5;"/><text fill="#000000" font-family="sans-serif" font-size="14" lengthAdjust="spacing" textLength="53.2041" x="28.94" y="522.4951">Usuario</text></g><!--entity Administrador--><g class="entity" data-entity="Administrador" data-source-line="4" data-uid="ent0003" id="entity_Administrador"><ellipse cx="55.54" cy="347" fill="#F1F1F1" rx="8" ry="8" style="stroke:#181818;stroke-width:0.5;"/><path d="M55.54,355 L55.54,382 M42.54,363 L68.54,363 M55.54,382 L42.54,397 M55.54,382 L68.54,397" fill="none" style="stroke:#181818;stroke-width:0.5;"/><text fill="#000000" font-family="sans-serif" font-size="14" lengthAdjust="spacing" textLength="99.0801" x="6" y="411.4951">Administrador</text></g><!--entity Autor--><g class="entity" data-entity="Autor" data-source-line="5" data-uid="ent0004" id="entity_Autor"><ellipse cx="55.5404" cy="14" fill="#F1F1F1" rx="8" ry="8" style="stroke:#181818;stroke-width:0.5;"/><path d="M55.5404,22 L55.5404,49 M42.5404,30 L68.5404,30 M55.5404,49 L42.5404,64 M55.5404,49 L68.5404,64" fill="none" style="stroke:#181818;stroke-width:0.5;"/><text fill="#000000" font-family="sans-serif" font-size="14" lengthAdjust="spacing" textLength="38.2607" x="36.41" y="78.4951">Autor</text></g><!--entity Visitante--><g class="entity" data-entity="Visitante" data-source-line="6" data-uid="ent0005" id="entity_Visitante"><ellipse cx="55.5372" cy="125" fill="#F1F1F1" rx="8" ry="8" style="stroke:#181818;stroke-width:0.5;"/><path d="M55.5372,133 L55.5372,160 M42.5372,141 L68.5372,141 M55.5372,160 L42.5372,175 M55.5372,160 L68.5372,175" fill="none" style="stroke:#181818;stroke-width:0.5;"/><text fill="#000000" font-family="sans-serif" font-size="14" lengthAdjust="spacing" textLength="61.6943" x="24.69" y="189.4951">Visitante</text></g><!--entity MiembroClub--><g class="entity" data-entity="MiembroClub" data-source-line="7" data-uid="ent0006" id="entity_MiembroClub"><ellipse cx="55.5414" cy="236" fill="#F1F1F1" rx="8" ry="8" style="stroke:#181818;stroke-width:0.5;"/><path d="M55.5414,244 L55.5414,271 M42.5414,252 L68.5414,252 M55.5414,271 L42.5414,286 M55.5414,271 L68.5414,286" fill="none" style="stroke:#181818;stroke-width:0.5;"/><text fill="#000000" font-family="sans-serif" font-size="14" lengthAdjust="spacing" textLength="97.3027" x="6.89" y="300.4951">Miembro Club</text></g><!--entity UC1--><g class="entity" data-entity="UC1" data-source-line="9" data-uid="ent0007" id="entity_UC1"><ellipse cx="262.5769" cy="134.6462" fill="#F1F1F1" rx="97.4969" ry="24.9262" style="stroke:#181818;stroke-width:0.5;"/><text fill="#000000" font-family="sans-serif" font-size="14" lengthAdjust="spacing" textLength="140.4717" x="192.3411" y="132.7744">Gestión de Usuarios</text><text fill="#000000" font-family="sans-serif" font-size="14" lengthAdjust="spacing" textLength="108.8418" x="208.156" y="149.0713">y Autenticación</text></g><!--entity UC2--><g class="entity" data-entity="UC2" data-source-line="10" data-uid="ent0008" id="entity_UC2"><ellipse cx="262.5835" cy="219.6517" fill="#F1F1F1" rx="59.3135" ry="24.7817" style="stroke:#181818;stroke-width:0.5;"/><text fill="#000000" font-family="sans-serif" font-size="14" lengthAdjust="spacing" textLength="62.3301" x="231.4184" y="214.3065">Catálogo</text><text fill="#000000" font-family="sans-serif" font-size="14" lengthAdjust="spacing" textLength="84.2666" x="220.4502" y="230.6034">y Contenido</text></g><!--entity UC3--><g class="entity" data-entity="UC3" data-source-line="11" data-uid="ent0009" id="entity_UC3"><ellipse cx="262.5791" cy="473.6488" fill="#F1F1F1" rx="76.6891" ry="24.4788" style="stroke:#181818;stroke-width:0.5;"/><text fill="#000000" font-family="sans-serif" font-size="14" lengthAdjust="spacing" textLength="73.6709" x="225.7437" y="467.843">Préstamos</text><text fill="#000000" font-family="sans-serif" font-size="14" lengthAdjust="spacing" textLength="111.8223" x="206.668" y="484.1398">y Disponibilidad</text></g><!--entity UC4--><g class="entity" data-entity="UC4" data-source-line="12" data-uid="ent0010" id="entity_UC4"><ellipse cx="262.5798" cy="558.6494" fill="#F1F1F1" rx="67.3298" ry="25.1494" style="stroke:#181818;stroke-width:0.5;"/><text fill="#000000" font-family="sans-serif" font-size="14" lengthAdjust="spacing" textLength="78.1621" x="223.4988" y="553.8527">Interacción</text><text fill="#000000" font-family="sans-serif" font-size="14" lengthAdjust="spacing" textLength="94.6641" x="215.2478" y="570.1496">y Experiencia</text></g><!--entity UC5--><g class="entity" data-entity="UC5" data-source-line="13" data-uid="ent0011" id="entity_UC5"><ellipse cx="262.5752" cy="304.6455" fill="#F1F1F1" rx="57.7252" ry="25.3055" style="stroke:#181818;stroke-width:0.5;"/><text fill="#000000" font-family="sans-serif" font-size="14" lengthAdjust="spacing" textLength="79.9668" x="222.5918" y="302.2126">Comunidad</text><text fill="#000000" font-family="sans-serif" font-size="14" lengthAdjust="spacing" textLength="68.7012" x="228.2246" y="318.5094">y Eventos</text></g><!--entity UC6--><g class="entity" data-entity="UC6" data-source-line="14" data-uid="ent0012" id="entity_UC6"><ellipse cx="262.5843" cy="389.648" fill="#F1F1F1" rx="53.6143" ry="24.638" style="stroke:#181818;stroke-width:0.5;"/><text fill="#000000" font-family="sans-serif" font-size="14" lengthAdjust="spacing" textLength="53.5732" x="235.7977" y="384.0855">Gestión</text><text fill="#000000" font-family="sans-serif" font-size="14" lengthAdjust="spacing" textLength="76.2412" x="224.4637" y="400.3824">y Auditoría</text></g><!--link Usuario to UC1--><g class="link" data-entity-1="Usuario" data-entity-2="UC1" data-source-line="16" data-uid="lnk13" id="link_Usuario_UC1"><path d="M82.64,463.33 C90.89,454.4 99.35,443.74 105.08,432.65 C158.54,329.22 90.85,267.35 165.08,177.65 C173.62,167.34 185.13,159.41 197.23,153.34" fill="none" id="Usuario-UC1" style="stroke:#181818;stroke-width:1;"/></g><!--link Usuario to UC2--><g class="link" data-entity-1="Usuario" data-entity-2="UC2" data-source-line="17" data-uid="lnk14" id="link_Usuario_UC2"><path d="M82.48,462.41 C90.52,453.57 98.9,443.2 105.08,432.65 C145.82,363.17 110.25,320.64 165.08,261.65 C177.52,248.27 194.96,238.93 211.61,232.52" fill="none" id="Usuario-UC2" style="stroke:#181818;stroke-width:1;"/></g><!--link Usuario to UC3--><g class="link" data-entity-1="Usuario" data-entity-2="UC3" data-source-line="18" data-uid="lnk15" id="link_Usuario_UC3"><path d="M82.51,485.88 C108.8,484.08 150.7,481.22 187.36,478.72" fill="none" id="Usuario-UC3" style="stroke:#181818;stroke-width:1;"/></g><!--link Usuario to UC4--><g class="link" data-entity-1="Usuario" data-entity-2="UC4" data-source-line="19" data-uid="lnk16" id="link_Usuario_UC4"><path d="M82.51,496.64 C115.05,507.91 171.5,527.46 212.34,541.6" fill="none" id="Usuario-UC4" style="stroke:#181818;stroke-width:1;"/></g><!--link Usuario to UC5--><g class="link" data-entity-1="Usuario" data-entity-2="UC5" data-source-line="20" data-uid="lnk17" id="link_Usuario_UC5"><path d="M82.59,459.32 C90.04,450.9 98.05,441.54 105.08,432.65 C133.75,396.37 129.35,377 165.08,347.65 C179.68,335.66 198.15,326.36 215.02,319.52" fill="none" id="Usuario-UC5" style="stroke:#181818;stroke-width:1;"/></g><!--link Usuario to UC6--><g class="link" data-entity-1="Usuario" data-entity-2="UC6" data-source-line="21" data-uid="lnk18" id="link_Usuario_UC6"><path d="M82.62,473.58 C104.45,461.95 136.54,445.21 165.08,431.65 C183.73,422.79 204.72,413.57 222.34,406.03" fill="none" id="Usuario-UC6" style="stroke:#181818;stroke-width:1;"/></g><!--link Administrador to UC1--><g class="link" data-entity-1="Administrador" data-entity-2="UC1" data-source-line="23" data-uid="lnk19" id="link_Administrador_UC1"><path d="M93.2,338.23 C97.48,332.87 101.57,327.27 105.08,321.65 C141.85,262.87 116.66,227.27 165.08,177.65 C174.69,167.81 186.95,160.04 199.48,153.98" fill="none" id="Administrador-UC1" style="stroke:#181818;stroke-width:1;"/></g><!--link Administrador to UC2--><g class="link" data-entity-1="Administrador" data-entity-2="UC2" data-source-line="24" data-uid="lnk20" id="link_Administrador_UC2"><path d="M91.5,338.1 C119.88,307.07 156.54,267.65 165.08,261.65 C180.48,250.83 199.11,241.92 215.87,235.13" fill="none" id="Administrador-UC2" style="stroke:#181818;stroke-width:1;"/></g><!--link Administrador to UC3--><g class="link" data-entity-1="Administrador" data-entity-2="UC3" data-source-line="25" data-uid="lnk21" id="link_Administrador_UC3"><path d="M105.41,402.18 C123.98,411.67 145.39,422.39 165.08,431.65 C181.28,439.27 199.22,447.22 215.19,454.11" fill="none" id="Administrador-UC3" style="stroke:#181818;stroke-width:1;"/></g><!--link Administrador to UC4--><g class="link" data-entity-1="Administrador" data-entity-2="UC4" data-source-line="26" data-uid="lnk22" id="link_Administrador_UC4"><path d="M91.52,415.29 C96.17,420.71 100.8,426.27 105.08,431.65 C133.63,467.56 129.55,486.63 165.08,515.65 C178.57,526.67 195.34,535.44 211.1,542.1" fill="none" id="Administrador-UC4" style="stroke:#181818;stroke-width:1;"/></g><!--link Administrador to UC5--><g class="link" data-entity-1="Administrador" data-entity-2="UC5" data-source-line="27" data-uid="lnk23" id="link_Administrador_UC5"><path d="M105.39,359.5 C139.15,347.64 183.72,331.99 216.6,320.44" fill="none" id="Administrador-UC5" style="stroke:#181818;stroke-width:1;"/></g><!--link Administrador to UC6--><g class="link" data-entity-1="Administrador" data-entity-2="UC6" data-source-line="28" data-uid="lnk24" id="link_Administrador_UC6"><path d="M105.39,379.75 C136.66,381.73 177.21,384.3 209.15,386.33" fill="none" id="Administrador-UC6" style="stroke:#181818;stroke-width:1;"/></g><!--link Autor to UC1--><g class="link" data-entity-1="Autor" data-entity-2="UC1" data-source-line="30" data-uid="lnk25" id="link_Autor_UC1"><path d="M75.1,51.89 C105.85,65.54 168.37,93.28 212.52,112.88" fill="none" id="Autor-UC1" style="stroke:#181818;stroke-width:1;"/></g><!--link Autor to UC2--><g class="link" data-entity-1="Autor" data-entity-2="UC2" data-source-line="31" data-uid="lnk26" id="link_Autor_UC2"><path d="M75.08,64 C84.27,74.25 95.44,86.96 105.08,98.65 C132.9,132.4 130.72,149.59 165.08,176.65 C179.92,188.34 198.44,197.58 215.28,204.46" fill="none" id="Autor-UC2" style="stroke:#181818;stroke-width:1;"/></g><!--link Visitante to UC1--><g class="link" data-entity-1="Visitante" data-entity-2="UC1" data-source-line="33" data-uid="lnk27" id="link_Visitante_UC1"><path d="M86.79,151.7 C109.07,149.53 140.62,146.45 170.79,143.51" fill="none" id="Visitante-UC1" style="stroke:#181818;stroke-width:1;"/></g><!--link Visitante to UC2--><g class="link" data-entity-1="Visitante" data-entity-2="UC2" data-source-line="34" data-uid="lnk28" id="link_Visitante_UC2"><path d="M86.79,164.24 C120.44,174.91 175.2,192.27 214.47,204.72" fill="none" id="Visitante-UC2" style="stroke:#181818;stroke-width:1;"/></g><!--link Visitante to UC5--><g class="link" data-entity-1="Visitante" data-entity-2="UC5" data-source-line="35" data-uid="lnk29" id="link_Visitante_UC5"><path d="M86.74,186.87 C112.62,214.02 148.3,250.2 165.08,261.65 C180.99,272.5 200.08,281.69 217.07,288.75" fill="none" id="Visitante-UC5" style="stroke:#181818;stroke-width:1;"/></g><!--link MiembroClub to UC5--><g class="link" data-entity-1="MiembroClub" data-entity-2="UC5" data-source-line="37" data-uid="lnk30" id="link_MiembroClub_UC5"><path d="M104.61,274.79 C135.98,280.76 176.92,288.55 209.13,294.67" fill="none" id="MiembroClub-UC5" style="stroke:#181818;stroke-width:1;"/></g><!--SRC=[RP8zJiGm48Lxdy9AlmNveKS18GeacgMYcTXc6IdnhEm9WkDGKb1nX5oCEEiawoLTtkUNzpp9jEQL9PDqU7XZgT4PnKXM251CJkvz3mufgXlTeKNF3ZIvcVMyF3-ZHmRB9khi4KtNE99rspUP12yZ25g8tXi5tiZitdZ6uTTARUP6_s8_GxQnZ0fKE9q2zlNL-buDF7orTA1WhcaijgWf-lBLz-I6Ry_GdL9lqH_9OeCjQj3HNQpkXp77WPewW__kusWS6giGehaykm9rlGqva_Dzl2xvwAh-3tWQIkFuSOQVEUrQY3YqtEsc0HEPfx98PPdAAfLZTFBFve8Dc6_1OWkMMx3QWg4-hCTIkufSY6LRvkCBa5-2IeYp_Odi3m00]--></g></svg>